<svg xmlns="http://www.w3.org/2000/svg" width="366" height="366" viewBox="0 0 366 366" version="1.1">
	<path d="M 166.694 0.988 C 158.846 1.749, 144.452 4.219, 139.773 5.608 C 138.252 6.059, 138.512 7.039, 141.950 13.810 C 152.674 34.932, 159.230 60.913, 162.524 95.343 C 163.136 101.738, 163.321 102.148, 165.340 101.601 C 170.105 100.310, 186.967 99.867, 194.484 100.836 C 198.876 101.401, 202.651 101.682, 202.874 101.459 C 203.097 101.236, 203.682 96.429, 204.175 90.777 C 206.647 62.432, 214.203 33.447, 224.398 13.202 L 227.988 6.074 224.244 5.091 C 209.445 1.203, 183.531 -0.644, 166.694 0.988 M 64.462 44.831 C -28.201 125.807, -18.951 267.143, 83.500 335.727 C 114.055 356.181, 145.027 365.362, 183.500 365.369 C 221.330 365.376, 251.164 356.456, 282.934 335.641 C 329.668 305.020, 359.002 256.618, 365.138 200 C 369.752 157.414, 356.278 110.148, 329.217 74 C 322.308 64.770, 305.484 47.295, 297.778 41.345 C 292.237 37.066, 292.041 36.999, 291.568 39.213 C 291.299 40.471, 290.332 45.100, 289.420 49.500 C 286.055 65.718, 278.156 87.283, 268.546 106.487 L 259.258 125.047 262.379 127.227 C 267.453 130.769, 278.862 142.012, 284.475 149 L 289.695 155.500 302.598 157.283 C 338.258 162.210, 340.995 163.957, 340.998 181.782 C 341 193.262, 339.652 196.767, 333.646 200.900 C 328.697 204.304, 328.932 203.766, 323.373 224.500 C 320.088 236.756, 317.210 243.485, 311.971 251.160 C 309.760 254.398, 307.042 259.399, 305.929 262.274 C 291.409 299.789, 259.083 326.532, 216 336.670 C 203.001 339.729, 176.955 340.934, 163.883 339.081 C 114.493 332.080, 75.336 302.876, 59.924 261.546 C 58.703 258.272, 56.248 253.547, 54.469 251.046 C 48 241.953, 44.013 231.842, 39.968 214.273 C 37.765 204.701, 37.451 204.231, 29.595 198.728 C 26.086 196.270, 24.710 190.239, 25.183 179.395 C 25.631 169.114, 26.931 166.210, 32.203 163.708 C 35.756 162.022, 60.332 157.273, 70.471 156.313 C 76.451 155.747, 76.537 155.693, 81 149.796 C 85.617 143.696, 95.105 134.232, 102.894 127.956 L 107.288 124.416 104.742 120.383 C 92.258 100.608, 75.161 54.215, 75.026 39.750 C 74.989 35.845, 74.447 36.105, 64.462 44.831" stroke="none" fill="#1f2937" fill-rule="evenodd"/>
	<path d="M 81.470 175.458 C 64.810 178.485, 59.863 184.463, 59.909 201.514 C 59.968 223.011, 67.681 241.964, 79.577 249.843 C 87.575 255.141, 93.052 256.463, 107 256.463 C 121.017 256.463, 126.803 255.054, 135.506 249.520 C 156.521 236.157, 167.323 199.599, 153.882 187.325 C 142.573 176.997, 105.992 171.002, 81.470 175.458 M 247.500 175.141 C 228.176 177.594, 212.411 184.437, 208.452 192.093 C 205.731 197.354, 205.531 204.706, 207.856 213.902 C 215.483 244.064, 234.787 258.734, 264.110 256.653 C 288.050 254.954, 300.800 242.012, 305.639 214.500 C 309.287 193.764, 305.106 181.471, 293.076 177.556 C 282.449 174.098, 263.593 173.099, 247.500 175.141" stroke="none" fill="#e89aa8" fill-opacity="0.5" fill-rule="evenodd"/>
	<path d="M 108.159 188.910 C 89.136 195.479, 83.384 220.763, 97.586 235.386 C 114.450 252.749, 144.043 242.106, 145.764 218.059 C 147.293 196.684, 128.293 181.957, 108.159 188.910 M 238.615 188.579 C 222.909 193.595, 215.369 213.883, 223.594 228.995 C 237.694 254.902, 276.622 244.938, 276.316 215.500 C 276.108 195.564, 257.762 182.463, 238.615 188.579 M 101.455 199.455 C 94.891 206.018, 102.497 215.897, 110.806 211.600 C 118.002 207.879, 115.166 197, 107 197 C 105.052 197, 103.002 197.907, 101.455 199.455 M 232.913 198.282 C 228.388 201.756, 228.017 206.171, 231.923 210.077 C 237.234 215.388, 245 212.433, 245 205.102 C 245 198.673, 237.739 194.577, 232.913 198.282" stroke="none" fill="#1f2937" fill-rule="evenodd"/>
	<path d="M 69 163.552 C 51.134 165.811, 36.265 169.049, 34.424 171.084 C 32.047 173.711, 32.232 192.003, 34.651 193.500 C 42.622 198.431, 44.352 201.557, 48.539 218.602 C 53.693 239.585, 60.772 251.672, 72.448 259.422 C 92.112 272.474, 125.596 271.571, 144.500 257.478 C 156.131 248.807, 162.193 239.517, 169.885 218.573 C 174.622 205.676, 177.185 202.545, 183.003 202.545 C 188.962 202.545, 192.017 206.263, 196.528 219 C 208.901 253.935, 227.096 268.172, 259.500 268.274 C 293.548 268.381, 309.813 253.454, 318.979 213.691 C 321.542 202.573, 323.045 199.702, 328.286 195.918 C 333.260 192.326, 333.769 190.955, 333.900 180.789 C 334.036 170.296, 333.525 169.888, 316.165 166.624 C 271.765 158.276, 239.909 160.620, 208.420 174.555 C 189.314 183.010, 175.366 183.238, 159.705 175.352 C 136.208 163.519, 103.217 159.227, 69 163.552 M 81.470 175.458 C 64.810 178.485, 59.863 184.463, 59.909 201.514 C 59.968 223.011, 67.681 241.964, 79.577 249.843 C 87.575 255.141, 93.052 256.463, 107 256.463 C 121.017 256.463, 126.803 255.054, 135.506 249.520 C 156.521 236.157, 167.323 199.599, 153.882 187.325 C 142.573 176.997, 105.992 171.002, 81.470 175.458 M 247.500 175.141 C 228.176 177.594, 212.411 184.437, 208.452 192.093 C 205.731 197.354, 205.531 204.706, 207.856 213.902 C 215.483 244.064, 234.787 258.734, 264.110 256.653 C 288.050 254.954, 300.800 242.012, 305.639 214.500 C 309.287 193.764, 305.106 181.471, 293.076 177.556 C 282.449 174.098, 263.593 173.099, 247.500 175.141" stroke="none" fill="#e89aa8" fill-rule="evenodd"/>
	<path d="M 151.336 268.573 C 145.113 274.796, 154.465 291.657, 167.771 298.208 C 176.371 302.442, 189.258 302.891, 197.259 299.237 C 211.672 292.654, 221.707 273.568, 213.833 267.715 L 211.165 265.733 202.333 268.053 C 190.302 271.212, 175.713 271.269, 164.333 268.202 C 154.193 265.468, 154.449 265.461, 151.336 268.573 M 171 285.240 C 164.161 288.072, 164.154 288.818, 170.929 292.250 C 178.503 296.086, 188.319 296.141, 195.850 292.388 C 201.856 289.394, 201.952 288.286, 196.446 285.514 C 190.339 282.441, 178.079 282.308, 171 285.240" stroke="none" fill="#1f2937" fill-rule="evenodd"/>
</svg>
