<?xml version="1.0" encoding="utf-8"?>
<svg version="1.1" id="Capa_2" xmlns="http://www.w3.org/2000/svg" xmlns:xlink="http://www.w3.org/1999/xlink" x="0px" y="0px"
	 viewBox="0 0 2122 2122" style="enable-background:new 0 0 2122 2122;" xml:space="preserve">
<path style="fill:#FDC835;" d="M1153.714,782.104H970.37c-37.426,0-64.074-36.36-52.802-72.05l134.487-425.872
	c11.272-35.689-15.374-72.047-52.8-72.05H764.501c-24.642,0-46.319,16.283-53.184,39.949L456.312,1131.28
	c-10.273,35.422,16.302,70.8,53.184,70.8h342.307c30.583,0,55.376,24.792,55.376,55.375v68.838l293.203-459.004
	C1223.927,830.429,1197.453,782.104,1153.714,782.104z"/>
<path style="fill:#F7A531;" d="M1510.889,782.104h-183.344c-37.426,0-64.073-36.36-52.802-72.05l134.487-425.872
	c11.271-35.69-15.378-72.05-52.805-72.05H999.25l0.005,0.001c37.426,0.003,64.072,36.361,52.8,72.05L917.568,710.054
	c-11.272,35.69,15.376,72.05,52.802,72.05h183.343c43.739,0,70.213,48.325,46.667,85.185l-293.203,459.004v527.52
	c0,7.646,1.549,14.93,4.352,21.555c0.269,0.636,0.603,1.235,0.895,1.858l645.128-1009.937
	C1581.102,830.429,1554.625,782.104,1510.889,782.104z"/>
<path style="fill:#EE7016;" d="M1611.769,782.104h-100.881c43.737,0,70.213,48.325,46.665,85.185L912.425,1877.226l-0.038,0.058
	c0.339,0.723,0.721,1.421,1.091,2.127l0.004,0.009l0.255,0.497l0.279,0.546l0.003,0.003c0.749,1.363,1.557,2.688,2.415,3.977
	l0.003,0.003l0.746,1.059l0.005,0.007c0.679,0.97,1.385,1.917,2.124,2.841l0.003,0.005l0.093,0.114l0.844,1.038l0.003,0.003
	c0.924,1.094,1.883,2.158,2.888,3.177l0.021,0.021l0.065,0.07l0.215,0.23l0.005,0.004c1.105,1.103,2.269,2.142,3.464,3.149
	l0.003,0.002l0.596,0.481l0.504,0.408l0.003,0.003c0.93,0.744,1.885,1.457,2.864,2.141l0.008,0.006l0.439,0.307l0.635,0.443
	l0.003,0.003c1.306,0.868,2.644,1.689,4.026,2.446l0.003,0.002l0.767,0.39l0.01,0.005c1.17,0.617,2.364,1.191,3.582,1.725
	l0.002,0.001l0.883,0.372l0.441,0.186l0.001,0c1.22,0.497,2.461,0.951,3.721,1.363l0.004,0.001l0.487,0.166l0.401,0.136l0.002,0
	c1.542,0.473,3.114,0.872,4.711,1.211h0.001l1.222,0.227h0.003c1.258,0.237,2.53,0.432,3.817,0.583
	c0.476,0.055,0.948,0.114,1.428,0.158c1.672,0.152,3.359,0.256,5.072,0.256h0.001c9.448,0,18.571-2.41,26.604-6.81
	c4.017-2.2,7.76-4.898,11.137-8.041c3.375-3.144,6.382-6.732,8.926-10.714l649.215-1016.334
	C1681.982,830.429,1655.507,782.104,1611.769,782.104z"/>
<path style="fill:#EE7016;" d="M1409.229,284.182l-134.487,425.872c-11.271,35.69,15.376,72.05,52.802,72.05h100.882
	c-28.07,0-50.076-20.452-54.571-45.735c-1.498-8.428-1.05-17.392,1.767-26.315l134.488-425.872
	c2.817-8.922,3.266-17.887,1.768-26.315c-4.495-25.283-26.502-45.735-54.573-45.735h-100.882
	C1393.851,212.132,1420.499,248.492,1409.229,284.182z"/>
<path style="fill:#FFFFFF;" d="M825.737,292.777c-20.715-6.244-40.607,11.389-53.555,28.717
	c-41.186,55.117-63.122,121.369-82.638,186.552c-20.779,69.405-40.219,141.906-35.047,215.024
	c1.314,18.594,6.202,39.891,22.916,48.144c18.323,9.048,39.323-2.861,54.406-17.514c1.454-1.413,2.853-2.851,4.19-4.299
	c45.633-49.418,68.884-115.125,87.219-179.843c20.43-72.116,36.439-148.051,31.543-222.611
	C853.451,326.848,848.027,299.499,825.737,292.777z"/>
<path style="fill:#FFFFFF;" d="M704.455,845.779c-4.76-9.765-13.03-18.21-23.462-21.241c-10.548-3.065-22.181-0.273-31.511,5.525
	c-9.33,5.798-16.637,14.34-22.967,23.318c-15.589,22.111-26.033,47.403-35.107,72.89c-12.881,36.172-23.377,74.715-17.295,112.627
	c0.424,2.644,0.935,5.289,1.561,7.908c2.062,8.646,5.353,16.995,10.772,23.981c26.19,33.758,60.33,2.577,76.439-22.905
	c16.331-25.832,26.638-54.995,35.079-84.369c8.057-28.039,14.582-56.96,13.328-86.107
	C710.824,866.553,709.215,855.544,704.455,845.779z"/>
</svg>
